<svg width="256" height="236" viewBox="0 0 256 236" fill="none" xmlns="http://www.w3.org/2000/svg">
<g clip-path="url(#clip0_60_236)">
<path d="M56.5001 75.4004H6.6001V235.1H56.5001V75.4004Z" fill="black"/>
<path d="M30.5 0C12.1 0 0 11.9 0 27.7C0 43.2 11.7 55.4 29.8 55.4H30.2C49 55.4 60.7 43.1 60.6 27.7C60.2 11.9 48.9 0 30.5 0Z" fill="black"/>
<path d="M192.8 73.9004C164.2 73.9004 146.3 89.5004 143 100.5V75.4004H86.8999C87.5999 88.7004 86.8999 235.1 86.8999 235.1H143V148.8C143 143.9 142.8 139.1 144.2 135.7C148 126.1 156.3 116.1 171.2 116.1C190.7 116.1 199.5 130.9 199.5 152.5V235.1H256.1V146.3C256.1 96.9004 228.3 73.9004 192.8 73.9004Z" fill="black"/>
</g>
<defs>
<clipPath id="clip0_60_236">
<rect width="256" height="235.1" fill="white"/>
</clipPath>
</defs>
</svg>
